<?xml version="1.0" encoding="UTF-8" standalone="no"?>
<svg
   width="75"
   height="72"
   viewBox="0 0 75 72"
   fill="none"
   version="1.1"
   id="svg9"
   sodipodi:docname="logo-blue.svg"
   inkscape:version="1.3.2 (091e20e, 2023-11-25, custom)"
   xmlns:inkscape="http://www.inkscape.org/namespaces/inkscape"
   xmlns:sodipodi="http://sodipodi.sourceforge.net/DTD/sodipodi-0.dtd"
   xmlns="http://www.w3.org/2000/svg"
   xmlns:svg="http://www.w3.org/2000/svg">
  <defs
     id="defs9" />
  <sodipodi:namedview
     id="namedview9"
     pagecolor="#ffffff"
     bordercolor="#000000"
     borderopacity="0.25"
     inkscape:showpageshadow="2"
     inkscape:pageopacity="0.0"
     inkscape:pagecheckerboard="0"
     inkscape:deskcolor="#d1d1d1"
     inkscape:zoom="7.6308607"
     inkscape:cx="26.274887"
     inkscape:cy="34.923977"
     inkscape:window-width="1920"
     inkscape:window-height="991"
     inkscape:window-x="-9"
     inkscape:window-y="-9"
     inkscape:window-maximized="1"
     inkscape:current-layer="svg9" />
  <path
     d="M30.4165 40.4018C30.5267 40.6347 30.747 41.1006 30.9546 41.5583C31.1623 42.016 31.3572 42.4655 31.5182 42.9764C31.6792 43.4872 31.8063 44.0593 31.9249 44.6069C32.0436 45.1545 32.1537 45.6776 32.2258 46.1271C32.2978 46.5766 32.3317 46.9526 32.3614 47.3408C32.391 47.7291 32.4164 48.1295 32.4334 48.5504C32.4504 48.9714 32.4588 49.4127 32.6664 49.7437C32.8741 50.0747 33.2808 50.2954 33.6071 50.4466C33.9333 50.5978 34.1791 50.6796 34.3274 50.5856C34.4757 50.4916 34.5265 50.2219 34.552 49.8827C34.5774 49.5435 34.5774 49.1348 34.5604 48.6853C34.5434 48.2358 34.5096 47.7454 34.4714 47.2591C34.4333 46.7728 34.3909 46.2906 34.3401 45.7593C34.2892 45.228 34.2299 44.6478 34.1325 44.1042C34.035 43.5607 33.8994 43.054 33.7384 42.5513C33.5774 42.0487 33.391 41.5501 33.2003 41.2314C33.0096 40.9126 32.8147 40.7737 32.5605 40.6756C32.3063 40.5775 31.9927 40.5203 31.6792 40.459C31.3656 40.3977 31.0521 40.3323 30.8233 40.2833C30.5945 40.2342 30.4504 40.2016 30.3784 40.1852C30.3064 40.1688 30.3063 40.1688 30.4165 40.4018Z"
     fill="white"
     id="path1"
     style="opacity:1;fill:#0e1a8f;fill-opacity:1" />
  <path
     d="M34.7808 46.7585C34.7936 46.973 34.819 47.4021 34.8275 47.7719C34.8359 48.1418 34.8274 48.4523 34.8296 48.718C34.8317 48.9836 34.8444 49.2043 35.1749 48.9877C35.5054 48.7711 36.1537 48.1173 36.8507 47.4511C37.5477 46.785 38.2934 46.1067 38.9523 45.5427C39.6112 44.9788 40.1832 44.5292 40.8209 44.0123C41.4586 43.4953 42.1619 42.911 42.8314 42.4635C43.5009 42.016 44.1364 41.7054 44.7339 41.4561C45.3313 41.2068 45.8906 41.0189 46.5601 40.8186C47.2295 40.6184 48.0091 40.4059 48.7337 40.2179C49.4583 40.0299 50.1277 39.8664 50.7336 39.7847C51.3395 39.703 51.8819 39.703 52.3098 39.7112C52.7378 39.7193 53.0513 39.7357 53.0386 39.5395C53.0259 39.3434 52.6869 38.9347 52.3946 38.571C52.1022 38.2073 51.8565 37.8886 51.509 37.7333C51.1616 37.578 50.7124 37.5862 50.1574 37.6393C49.6023 37.6924 48.9413 37.7905 48.3947 37.8968C47.8481 38.003 47.416 38.1174 46.8439 38.3095C46.2719 38.5016 45.5601 38.7713 44.8652 39.0573C44.1703 39.3434 43.4924 39.6458 42.7848 40.0422C42.0772 40.4386 41.3399 40.929 40.6238 41.4521C39.9078 41.9752 39.2129 42.5309 38.5222 43.1031C37.8316 43.6752 37.1452 44.2636 36.5202 44.8399C35.8952 45.4161 35.3317 45.98 35.0499 46.262C34.7682 46.5439 34.7681 46.5439 34.7808 46.7585Z"
     fill="white"
     id="path2"
     style="opacity:1;fill:#0e1a8f;fill-opacity:1" />
  <path
     d="M48.0609 41.3259C48.1987 41.7363 48.9417 42.3489 49.5889 42.9499C50.2361 43.551 50.7873 44.1404 51.4225 44.9091C52.0577 45.6778 52.7767 46.6255 53.4778 47.6138C54.1789 48.6021 54.862 49.6308 55.5751 50.7404C56.2882 51.85 57.0312 53.0406 57.8042 54.3005C58.5772 55.5604 59.3801 56.8896 60.2011 58.0165C61.022 59.1435 61.8609 60.0682 62.7178 60.9582C63.5747 61.8482 64.4495 62.7035 65.3124 63.5415C66.1753 64.3795 67.0262 65.2002 67.889 66.0151C68.7519 66.83 69.6268 67.6391 70.208 68.2632C70.7893 68.8874 71.0769 69.3266 71.4244 69.4769C71.772 69.6271 72.1794 69.4884 72.515 69.3266C72.8506 69.1648 73.1142 68.9798 73.0663 68.6735C73.0183 68.3672 72.6588 67.9396 72.2034 67.4426C71.748 66.9455 71.1967 66.3792 70.5915 65.7377C69.9863 65.0962 69.3272 64.3795 68.6141 63.6224C67.901 62.8653 67.134 62.0678 66.403 61.2183C65.6719 60.3687 64.9768 59.4671 64.3477 58.6291C63.7185 57.7911 63.1552 57.0167 62.574 56.1151C61.9927 55.2136 61.3935 54.1849 60.7583 53.2081C60.1231 52.2314 59.452 51.3068 58.7869 50.2723C58.1218 49.2378 57.4626 48.0935 56.8874 47.111C56.3121 46.1285 55.8208 45.3079 55.2215 44.4525C54.6223 43.5972 53.9153 42.7072 53.2861 42.0021C52.6569 41.297 52.1056 40.7769 51.6921 40.4937C51.2787 40.2105 51.0031 40.1643 50.5536 40.2047C50.1042 40.2452 49.481 40.3723 48.9357 40.54C48.3904 40.7076 47.9231 40.9156 48.0609 41.3259Z"
     fill="white"
     id="path3"
     style="fill:#0e1a8f;fill-opacity:1" />
  <path
     d="M39.9474 29.6083C39.7496 30.0505 40.1152 30.6457 40.4897 31.2814C40.8642 31.9172 41.2477 32.5933 41.6102 33.2377C41.9727 33.8821 42.3143 34.4947 42.6798 35.1449C43.0454 35.7951 43.4348 36.4828 43.8633 37.0839C44.2917 37.6849 44.7591 38.1993 45.5081 38.2744C46.2572 38.3495 47.2878 37.9854 47.6563 37.6155C48.0248 37.2457 47.7312 36.87 47.4047 36.4655C47.0781 36.0609 46.7186 35.6275 46.338 35.1478C45.9575 34.6681 45.5561 34.1422 45.1756 33.6134C44.7951 33.0846 44.4355 32.5529 44.064 31.9894C43.6925 31.4259 43.309 30.8307 42.9854 30.3336C42.6618 29.8366 42.3982 29.4378 42.1885 29.1633C41.9787 28.8888 41.8229 28.7385 41.3645 28.8079C40.9061 28.8773 40.1451 29.1662 39.9474 29.6083Z"
     fill="white"
     id="path4"
     style="opacity:1;fill:#0e1a8f;fill-opacity:1" />
  <path
     d="M30.8486 28.9389C30.6198 29.3067 30.6792 29.9197 31.0732 30.2262C31.4673 30.5327 32.196 30.5327 33.0731 30.455C33.9502 30.3774 34.9756 30.2221 35.8273 30.0423C36.6789 29.8625 37.3569 29.6581 38.2085 29.3843C39.0602 29.1105 40.0856 28.7673 40.9584 28.4363C41.8313 28.1052 42.5516 27.7865 43.0558 27.529C43.56 27.2716 43.8481 27.0754 43.9074 26.8016C43.9667 26.5278 43.7973 26.1764 43.6363 25.8658C43.4752 25.5552 43.3227 25.2855 43.0261 25.2692C42.7295 25.2529 42.2889 25.4898 41.8524 25.7023C41.416 25.9149 40.9838 26.1028 40.4372 26.3112C39.8906 26.5197 39.2297 26.7485 38.5136 26.9733C37.7975 27.198 37.0264 27.4187 36.2764 27.5944C35.5264 27.7702 34.7976 27.9009 34.107 28.0153C33.4163 28.1298 32.7638 28.2279 32.1791 28.3382C31.5944 28.4485 31.0774 28.5711 30.8486 28.9389Z"
     fill="white"
     id="path5"
     style="opacity:1;fill:#0e1a8f;fill-opacity:1" />
  <path
     d="M20.8576 41.9751C20.6203 42.2366 20.3152 42.7597 20.2135 43.3318C20.1119 43.904 20.2135 44.5251 20.5186 45.1054C20.8237 45.6857 21.3321 46.2251 22.0694 46.8218C22.8067 47.4184 23.7727 48.0723 25.0185 48.7833C26.2642 49.4944 27.7895 50.2627 29.1454 50.8266C30.5013 51.3906 31.6877 51.7502 32.8741 52.2733C34.0605 52.7964 35.2468 53.4829 36.3316 54.1695C37.4163 54.856 38.3993 55.5425 39.4162 56.3435C40.4331 57.1445 41.4839 58.0599 42.4839 58.9753C43.4838 59.8907 44.4329 60.8061 45.4668 61.7378C46.5007 62.6696 47.6192 63.6176 48.6616 64.484C49.7039 65.3503 50.67 66.135 51.7292 66.9278C52.7885 67.7206 53.941 68.5215 55.0088 69.1182C56.0765 69.7148 57.0595 70.1071 58.1781 70.4994C59.2968 70.8917 60.5509 71.284 61.7966 71.5374C63.0424 71.7908 64.2796 71.9052 65.5931 71.9624C66.9066 72.0196 68.2964 72.0196 69.5167 71.9052C70.737 71.7908 71.7878 71.5619 72.6182 71.2268C73.4487 70.8917 74.0588 70.4504 74.4317 69.9927C74.8046 69.535 74.9402 69.0609 74.9571 68.5951C74.9741 68.1292 74.8724 67.6715 74.6605 67.7614C74.4487 67.8513 74.1266 68.4888 73.5673 68.971C73.008 69.4533 72.2115 69.7802 71.4149 69.96C70.6183 70.1398 69.8217 70.1725 68.8811 70.1725C67.9404 70.1725 66.8557 70.1398 65.6354 70.0989C64.4151 70.0581 63.0593 70.009 61.8898 69.8129C60.7204 69.6167 59.7374 69.2734 58.7289 68.8566C57.7205 68.4398 56.6867 67.9494 55.6274 67.3446C54.5681 66.7397 53.4834 66.0205 52.5089 65.3095C51.5343 64.5984 50.67 63.8955 49.8903 63.2417C49.1107 62.5878 48.4158 61.983 47.7124 61.3046C47.0091 60.6262 46.2972 59.8743 45.5685 59.1224C44.8397 58.3704 44.0939 57.6185 43.2719 56.8175C42.4499 56.0166 41.5517 55.1666 40.4754 54.3819C39.3992 53.5973 38.145 52.8781 37.0179 52.306C35.8909 51.7338 34.8909 51.3088 33.874 50.8757C32.8571 50.4425 31.8233 50.0011 30.8487 49.5843C29.8742 49.1675 28.959 48.7752 28.0776 48.3665C27.1963 47.9578 26.3489 47.5328 25.654 47.0915C24.9591 46.6501 24.4168 46.1925 23.8998 45.7511C23.3829 45.3097 22.8914 44.8847 22.544 44.4434C22.1965 44.002 21.9931 43.5443 21.8321 43.0866C21.6711 42.6289 21.5525 42.1713 21.4084 41.9424C21.2643 41.7136 21.0949 41.7136 20.8576 41.9751Z"
     fill="white"
     id="path6"
     style="fill:#0e1a8f;fill-opacity:1" />
  <path
     d="M31.9059 39.6902C31.2767 39.6902 30.0902 39.4706 28.9937 39.1817C27.8971 38.8927 26.8904 38.5344 25.8058 38.1125C24.7212 37.6906 23.5587 37.2051 22.3004 36.6561C21.042 36.1071 19.6878 35.4945 18.6152 35.0263C17.5426 34.5582 16.7516 34.2346 15.9666 33.8185C15.1816 33.4024 14.4027 32.8938 13.8095 32.3448C13.2162 31.7957 12.8088 31.2062 12.5571 30.6167C12.3054 30.0273 12.2095 29.4378 12.1976 28.9523C12.1856 28.4668 12.2575 28.0854 12.659 28.0681C13.0604 28.0507 13.7915 28.3975 14.5645 28.7385C15.3375 29.0795 16.1524 29.4147 17.0273 29.7903C17.9021 30.166 18.8369 30.5821 19.6818 30.9924C20.5267 31.4027 21.2817 31.8073 22.0367 32.1425C22.7918 32.4777 23.5468 32.7435 23.8763 32.7782C24.2059 32.8129 24.11 32.6164 23.5887 32.2754C23.0674 31.9344 22.1206 31.449 21.3237 31.0155C20.5267 30.5821 19.8795 30.2006 19.1305 29.8654C18.3815 29.5302 17.5306 29.2413 16.6797 28.9292C15.8288 28.6171 14.9779 28.2819 14.2229 27.9178C13.4679 27.5537 12.8088 27.1607 12.1556 26.8082C11.5024 26.4557 10.8553 26.1436 10.2441 25.7853C9.63289 25.4269 9.05765 25.0224 8.58426 24.6121C8.11088 24.2017 7.73937 23.7856 7.46972 23.2828C7.20007 22.78 7.03229 22.1905 6.96038 21.6588C6.88848 21.1271 6.91244 20.6533 6.97836 20.2949C7.04428 19.9366 7.15213 19.6939 7.54763 19.7748C7.94312 19.8557 8.62621 20.2603 9.39322 20.7226C10.1602 21.1849 11.0111 21.7051 11.868 22.231C12.7249 22.7569 13.5877 23.2886 14.4866 23.8261C15.3854 24.3636 16.3202 24.9068 17.1831 25.4154C18.0459 25.924 18.8369 26.3979 19.55 26.7446C20.2631 27.0914 20.8982 27.311 21.2218 27.3341C21.5454 27.3572 21.5574 27.1839 21.1978 26.9642C20.8383 26.7446 20.1072 26.4788 19.2384 26.0627C18.3695 25.6465 17.3628 25.0802 16.2962 24.4329C15.2296 23.7856 14.1031 23.0574 13.0964 22.3928C12.0897 21.7282 11.2029 21.1271 10.286 20.5608C9.36923 19.9944 8.42248 19.4627 7.70341 18.9888C6.98434 18.5149 6.49299 18.0988 6.11548 17.6018C5.73797 17.1047 5.47432 16.5268 5.30654 15.9489C5.13876 15.371 5.06685 14.793 5.07284 14.3423C5.07884 13.8915 5.16273 13.5678 5.61814 13.6487C6.07356 13.7297 6.90046 14.2151 7.71541 14.6659C8.53035 15.1167 9.33329 15.5328 10.1243 15.9778C10.9152 16.4228 11.6942 16.8967 12.653 17.4168C13.6117 17.937 14.7502 18.5033 15.6551 18.9888C16.5599 19.4743 17.231 19.8788 17.8422 20.2371C18.4534 20.5955 19.0047 20.9075 19.55 21.1676C20.0953 21.4277 20.6346 21.6357 20.8982 21.6531C21.1619 21.6704 21.1499 21.497 20.7065 21.1503C20.263 20.8035 19.3882 20.2834 18.2317 19.6419C17.0752 19.0004 15.6371 18.2375 14.2828 17.5151C12.9286 16.7927 11.6583 16.1107 10.3519 15.4114C9.04564 14.7121 7.70342 13.9955 6.64279 13.3887C5.58217 12.7818 4.8032 12.2848 4.09611 11.834C3.38902 11.3833 2.75387 10.9787 2.23254 10.5279C1.71122 10.0771 1.30376 9.58012 0.950214 9.06576C0.596672 8.55139 0.297069 8.01971 0.141273 7.49378C-0.0145243 6.96787 -0.0265079 6.44774 0.0334154 5.94494C0.0933387 5.44213 0.225163 4.95668 0.740501 4.89311C1.25584 4.82955 2.15465 5.18786 3.56883 5.81781C4.983 6.44776 6.91245 7.34931 8.56631 8.19888C10.2202 9.04844 11.5983 9.84596 13.0245 10.551C14.4507 11.2561 15.9247 11.8687 17.3389 12.4756C18.753 13.0824 20.1073 13.6834 21.3956 14.3018C22.6839 14.9202 23.9063 15.5559 24.871 16.1974C25.8358 16.8389 26.5429 17.4862 27.0882 18.1971C27.6334 18.9079 28.0169 19.6823 28.3345 20.607C28.6521 21.5317 28.9038 22.6066 29.1255 23.7336C29.3472 24.8606 29.539 26.0396 29.6948 27.0856C29.8506 28.1317 29.9704 29.0448 30.1621 30.0908C30.3539 31.1369 30.6175 32.3159 30.9351 33.5295C31.2527 34.7432 31.6242 35.9915 31.9238 36.9509C32.2235 37.9102 32.4512 38.5806 32.5291 39.0256C32.607 39.4706 32.5351 39.6902 31.9059 39.6902Z"
     fill="white"
     id="path7"
     style="fill:#0e1a8f;fill-opacity:1" />
  <path
     d="M37.7764 26.6341C37.5603 26.8057 36.8569 27.0019 36.1154 27.1817C35.3739 27.3615 34.5943 27.525 33.9164 27.6557C33.2384 27.7865 32.6622 27.8846 32.213 27.811C31.7639 27.7375 31.4419 27.4923 31.1326 27.1449C30.8233 26.7976 30.5267 26.348 30.319 25.8944C30.1114 25.4408 29.9928 24.9831 29.9547 24.5377C29.9165 24.0922 29.9589 23.6591 30.1326 23.4874C30.3063 23.3158 30.6114 23.4057 31.2512 23.6223C31.891 23.8389 32.8656 24.1821 33.6918 24.5091C34.518 24.836 35.196 25.1466 35.7977 25.4204C36.3993 25.6942 36.9247 25.9312 37.323 26.1233C37.7213 26.3154 37.9925 26.4625 37.7764 26.6341Z"
     fill="white"
     id="path8"
     style="opacity:1;fill:#0e1a8f;fill-opacity:1" />
  <path
     d="M38.8101 26.2377C38.5432 26.0865 38.0093 25.7841 37.3314 25.4449C36.6534 25.1057 35.8314 24.7298 35.0391 24.4069C34.2467 24.0841 33.4841 23.8144 32.8527 23.5774C32.2214 23.3403 31.7214 23.136 31.1282 22.8622C30.535 22.5884 29.8486 22.2451 29.4631 21.8692C29.0775 21.4932 28.9927 21.0845 28.891 20.6432C28.7893 20.2018 28.6707 19.7278 28.48 19.2251C28.2894 18.7225 28.0267 18.1912 27.675 17.7049C27.3233 17.2186 26.8826 16.7773 26.5013 16.4667C26.12 16.1561 25.7979 15.9763 25.5225 15.8619C25.2471 15.7475 25.0183 15.6984 24.9632 15.5227C24.9081 15.347 25.0268 15.0446 25.2725 15.0037C25.5183 14.9629 25.8912 15.1835 26.2979 15.4042C26.7047 15.6249 27.1453 15.8456 27.5733 16.1316C28.0012 16.4177 28.4165 16.7691 28.9419 17.1492C29.4673 17.5292 30.1028 17.9379 30.73 18.3302C31.357 18.7225 31.9757 19.0985 32.5773 19.4499C33.179 19.8014 33.7637 20.1283 34.3484 20.4634C34.9332 20.7985 35.5179 21.1418 36.1619 21.4932C36.806 21.8447 37.5093 22.2043 38.0559 22.4454C38.6025 22.6865 38.9923 22.8091 39.2211 22.8009C39.4499 22.7928 39.5177 22.6538 39.433 22.5026C39.3482 22.3514 39.111 22.1879 38.8101 22.0531C38.5093 21.9182 38.1449 21.812 37.7254 21.624C37.3059 21.436 36.8314 21.1663 36.2933 20.8639C35.7552 20.5615 35.1535 20.2264 34.5137 19.8586C33.8739 19.4908 33.196 19.0903 32.6324 18.7429C32.0689 18.3956 31.6197 18.1013 31.0604 17.7458C30.5011 17.3903 29.8317 16.9734 29.2258 16.5566C28.6198 16.1398 28.0775 15.723 27.4504 15.3266C26.8233 14.9302 26.1115 14.5542 25.5734 14.2395C25.0353 13.9249 24.6709 13.6715 24.3404 13.3568C24.0099 13.0422 23.7133 12.6662 23.476 12.2126C23.2387 11.759 23.0608 11.2277 22.9506 10.6924C22.8404 10.157 22.7981 9.61761 22.8108 9.24981C22.8235 8.88202 22.8913 8.68587 23.2811 8.7676C23.6709 8.84934 24.3827 9.20895 25.0861 9.60127C25.7895 9.99358 26.4844 10.4186 27.2047 10.8518C27.925 11.2849 28.6707 11.7263 29.4292 12.1636C30.1876 12.6008 30.9588 13.034 31.6918 13.4181C32.4248 13.8023 33.1197 14.1374 33.8442 14.5215C34.5688 14.9057 35.323 15.3388 36.0009 15.723C36.6789 16.1071 37.2805 16.4422 37.789 16.6833C38.2974 16.9244 38.7127 17.0715 38.9245 17.092C39.1364 17.1124 39.1449 17.0061 38.9711 16.8427C38.7974 16.6792 38.4415 16.4585 37.9161 16.1153C37.3907 15.772 36.6958 15.3061 35.9247 14.8566C35.1535 14.4071 34.3061 13.9739 33.4078 13.5121C32.5095 13.0503 31.5604 12.5599 30.5986 12.0573C29.6368 11.5546 28.6622 11.0397 27.7004 10.5044C26.7386 9.96904 25.7895 9.41328 24.9632 8.95967C24.137 8.50605 23.4336 8.15461 22.7684 7.75821C22.1032 7.36181 21.4761 6.92047 20.832 6.40555C20.188 5.89064 19.527 5.30218 19.044 4.75458C18.5609 4.20697 18.2559 3.70024 18.0694 3.18533C17.883 2.67042 17.8152 2.14735 17.8322 1.6406C17.8491 1.13386 17.9508 0.643482 18.061 0.341074C18.1711 0.0386656 18.2898 -0.075755 18.7262 0.0509326C19.1626 0.17762 19.9168 0.545403 20.8829 1.00719C21.849 1.46898 23.0269 2.02475 24.2006 2.5887C25.3743 3.15266 26.5437 3.72476 27.675 4.33367C28.8063 4.94258 29.8995 5.58824 30.9884 6.14402C32.0774 6.6998 33.1621 7.16566 34.2849 7.63562C35.4078 8.10558 36.5687 8.57961 37.5771 9.02097C38.5856 9.46233 39.4415 9.87098 40.183 10.2429C40.9245 10.6147 41.5515 10.9498 42.1575 11.3135C42.7634 11.6773 43.3481 12.0696 43.865 12.5313C44.382 12.9931 44.8311 13.5244 45.1912 14.0842C45.5514 14.6441 45.8226 15.2326 46.009 15.8701C46.1954 16.5076 46.2971 17.1941 46.4242 17.9134C46.5514 18.6326 46.7039 19.3845 46.8437 20.0711C46.9835 20.7576 47.1106 21.3788 47.225 22.0245C47.3395 22.6702 47.4411 23.3403 47.5301 23.9942C47.6191 24.6481 47.6954 25.2856 47.7462 25.8332C47.7971 26.3808 47.8225 26.8385 47.8352 27.3043C47.8479 27.7702 47.8479 28.2442 47.8352 28.7591C47.8225 29.2741 47.797 29.8298 47.7928 30.406C47.7886 30.9823 47.8056 31.5789 47.5979 31.6443C47.3903 31.7096 46.9582 31.2438 46.5938 30.7289C46.2294 30.214 45.9328 29.65 45.6785 29.0779C45.4243 28.5058 45.2125 27.9255 45.0218 27.4106C44.8311 26.8957 44.6616 26.4461 44.4286 25.9844C44.1955 25.5226 43.8989 25.0485 43.6829 24.8033C43.4668 24.5581 43.3312 24.5418 43.0897 24.6276C42.8481 24.7134 42.5007 24.9014 42.1066 25.1302C41.7126 25.3591 41.2719 25.6288 40.7592 25.8454C40.2465 26.062 39.6618 26.2254 39.3695 26.3072C39.0771 26.3889 39.0771 26.3889 38.8101 26.2377Z"
     fill="white"
     id="path9"
     style="fill:#0e1a8f;fill-opacity:1" />
</svg>
